<svg id="visual" viewBox="0 0 900 600" width="900" height="600" xmlns="http://www.w3.org/2000/svg" xmlns:xlink="http://www.w3.org/1999/xlink" version="1.1"><rect x="0" y="0" width="900" height="600" fill="#FFFFFF"></rect><path d="M0 422L16.7 421.2C33.3 420.3 66.7 418.7 100 426C133.3 433.3 166.7 449.7 200 452.7C233.3 455.7 266.7 445.3 300 444.8C333.3 444.3 366.7 453.7 400 452C433.3 450.3 466.7 437.7 500 432C533.3 426.3 566.7 427.7 600 426.7C633.3 425.7 666.7 422.3 700 430.5C733.3 438.7 766.7 458.3 800 462.7C833.3 467 866.7 456 883.3 450.5L900 445L900 601L883.3 601C866.7 601 833.3 601 800 601C766.7 601 733.3 601 700 601C666.7 601 633.3 601 600 601C566.7 601 533.3 601 500 601C466.7 601 433.3 601 400 601C366.7 601 333.3 601 300 601C266.7 601 233.3 601 200 601C166.7 601 133.3 601 100 601C66.7 601 33.3 601 16.7 601L0 601Z" fill="#06bee1"></path><path d="M0 461L16.7 461.5C33.3 462 66.7 463 100 467C133.3 471 166.7 478 200 484.3C233.3 490.7 266.7 496.3 300 499.8C333.3 503.3 366.7 504.7 400 497.8C433.3 491 466.7 476 500 472.8C533.3 469.7 566.7 478.3 600 480.7C633.3 483 666.7 479 700 482.7C733.3 486.3 766.7 497.7 800 497C833.3 496.3 866.7 483.7 883.3 477.3L900 471L900 601L883.3 601C866.7 601 833.3 601 800 601C766.7 601 733.3 601 700 601C666.7 601 633.3 601 600 601C566.7 601 533.3 601 500 601C466.7 601 433.3 601 400 601C366.7 601 333.3 601 300 601C266.7 601 233.3 601 200 601C166.7 601 133.3 601 100 601C66.7 601 33.3 601 16.7 601L0 601Z" fill="#00a5fa"></path><path d="M0 525L16.7 527C33.3 529 66.7 533 100 531.3C133.3 529.7 166.7 522.3 200 518C233.3 513.7 266.7 512.3 300 510.5C333.3 508.7 366.7 506.3 400 507.2C433.3 508 466.7 512 500 513.8C533.3 515.7 566.7 515.3 600 516.7C633.3 518 666.7 521 700 523.2C733.3 525.3 766.7 526.7 800 524.7C833.3 522.7 866.7 517.3 883.3 514.7L900 512L900 601L883.3 601C866.7 601 833.3 601 800 601C766.7 601 733.3 601 700 601C666.7 601 633.3 601 600 601C566.7 601 533.3 601 500 601C466.7 601 433.3 601 400 601C366.7 601 333.3 601 300 601C266.7 601 233.3 601 200 601C166.7 601 133.3 601 100 601C66.7 601 33.3 601 16.7 601L0 601Z" fill="#0080ff"></path><path d="M0 547L16.7 549.2C33.3 551.3 66.7 555.7 100 558.5C133.3 561.3 166.7 562.7 200 560.7C233.3 558.7 266.7 553.3 300 548.2C333.3 543 366.7 538 400 538.5C433.3 539 466.7 545 500 549.5C533.3 554 566.7 557 600 557.7C633.3 558.3 666.7 556.7 700 558C733.3 559.3 766.7 563.7 800 561.8C833.3 560 866.7 552 883.3 548L900 544L900 601L883.3 601C866.7 601 833.3 601 800 601C766.7 601 733.3 601 700 601C666.7 601 633.3 601 600 601C566.7 601 533.3 601 500 601C466.7 601 433.3 601 400 601C366.7 601 333.3 601 300 601C266.7 601 233.3 601 200 601C166.7 601 133.3 601 100 601C66.7 601 33.3 601 16.7 601L0 601Z" fill="#5949f4"></path></svg>